<svg xmlns="http://www.w3.org/2000/svg" width="6.132" height="13.2" viewBox="0 0 6.132 13.2">
  <path id="fb" d="M1.351,7.392v6.382a.166.166,0,0,0,.166.166h2.37a.166.166,0,0,0,.166-.166V7.288H5.771a.166.166,0,0,0,.166-.152L6.1,5.182A.166.166,0,0,0,5.937,5H4.054V3.615a.588.588,0,0,1,.588-.588H5.966a.166.166,0,0,0,.166-.166V.906A.166.166,0,0,0,5.966.74H3.728A2.378,2.378,0,0,0,1.351,3.117V5H.166A.166.166,0,0,0,0,5.168V7.122a.166.166,0,0,0,.166.166H1.351Z" transform="translate(0 -0.74)" fill="#fff" fill-rule="evenodd"/>
</svg>
