<svg xmlns="http://www.w3.org/2000/svg" width="13.769" height="13.769" viewBox="0 0 13.769 13.769">
  <path id="insta" d="M58.6,2.535a.809.809,0,1,0,.809.809.809.809,0,0,0-.809-.809M55,3.573a3.4,3.4,0,1,0,3.4,3.4,3.4,3.4,0,0,0-3.4-3.4m0,5.578a2.178,2.178,0,1,1,2.178-2.178A2.181,2.181,0,0,1,55,9.151m6.861-5A4.147,4.147,0,0,0,57.717,0H52.243A4.147,4.147,0,0,0,48.1,4.147V9.621a4.148,4.148,0,0,0,4.147,4.147h5.474a4.148,4.148,0,0,0,4.147-4.147Zm-1.3,5.474a2.848,2.848,0,0,1-2.848,2.848H52.243a2.849,2.849,0,0,1-2.848-2.848V4.147A2.849,2.849,0,0,1,52.243,1.3h5.474a2.848,2.848,0,0,1,2.848,2.848Z" transform="translate(-48.096)" fill="#fff"/>
</svg>
