<svg xmlns="http://www.w3.org/2000/svg" width="12.151" height="11.769" viewBox="0 0 12.151 11.769">
  <g id="linkedin" transform="translate(0 0)">
    <path id="Path_59080" data-name="Path 59080" d="M179.539,16v4.356a.2.2,0,0,1-.195.195h-2.249a.2.2,0,0,1-.195-.195V16.305c0-1.066-.381-1.794-1.336-1.794a1.443,1.443,0,0,0-1.353.965,1.81,1.81,0,0,0-.087.643v4.237a.2.2,0,0,1-.195.195H171.68a.194.194,0,0,1-.195-.195c.005-1.079.028-6.313,0-7.543a.194.194,0,0,1,.195-.2h2.244a.2.2,0,0,1,.195.195v.929c-.005.009-.013.018-.018.026h.018V13.74a2.62,2.62,0,0,1,2.378-1.311c1.736,0,3.037,1.134,3.037,3.571m-11.956,4.551h2.248a.2.2,0,0,0,.195-.195V12.81a.2.2,0,0,0-.195-.195h-2.248a.2.2,0,0,0-.195.195v7.546a.2.2,0,0,0,.195.195" transform="translate(-167.388 -8.782)" fill="#fff"/>
    <path id="Path_59081" data-name="Path 59081" d="M169.79,4.9a1.412,1.412,0,1,1-1.412-1.412A1.412,1.412,0,0,1,169.79,4.9" transform="translate(-166.965 -3.485)" fill="#fff"/>
  </g>
</svg>
