<svg xmlns="http://www.w3.org/2000/svg" width="36.639" height="36.083" viewBox="0 0 36.639 36.083">
  <g id="phone" transform="translate(0.889 0.75)">
    <path id="Path_2617" data-name="Path 2617" d="M-225.481,129.82a4.632,4.632,0,0,0-2.005-3.178c-.6-.4-1.209-.854-1.794-1.29-2.349-1.749-5.012-3.731-7.132-1.607a2.521,2.521,0,0,1-2.683.888c-.383-.321-1.961-1.661-3.593-3.28-2.076-2.059-2.279-2.98-1.092-4.926,1.922-3.15,1.106-4.317-1.6-8.184l-.119-.171c-1.408-2.014-2.547-2.939-3.812-3.092-1.489-.181-2.843.8-3.971,1.793-2.773,2.43-3.384,6.391-1.593,10.336a36.579,36.579,0,0,0,12.423,14.777c3.738,2.514,6.84,4.109,9.676,4.108a7.8,7.8,0,0,0,5.387-2.289A4.781,4.781,0,0,0-225.481,129.82Z" transform="translate(255.887 -101.412)" fill="none" stroke="#f4530e" stroke-miterlimit="10" stroke-width="1.5"/>
    <path id="Path_2618" data-name="Path 2618" d="M-174.056,110.7a17.911,17.911,0,0,0-17.891-17.891" transform="translate(209.056 -92.811)" fill="none" stroke="#f4530e" stroke-linecap="round" stroke-miterlimit="10" stroke-width="1.5"/>
    <path id="Path_2619" data-name="Path 2619" d="M-179.959,125.021a12,12,0,0,0-11.988-11.988" transform="translate(209.43 -107.506)" fill="none" stroke="#f4530e" stroke-linecap="round" stroke-miterlimit="10" stroke-width="1.5"/>
  </g>
</svg>
