<svg xmlns="http://www.w3.org/2000/svg" width="11.862" height="9.77" viewBox="0 0 11.862 9.77">
  <path id="twitter" d="M115.219,2.277a4.89,4.89,0,0,1-1.2.342c.193-.032.478-.382.591-.523a2.205,2.205,0,0,0,.4-.726c.01-.021.018-.047,0-.063a.068.068,0,0,0-.064.005,6.124,6.124,0,0,1-1.423.545.1.1,0,0,1-.1-.026A1.164,1.164,0,0,0,113.3,1.7a2.516,2.516,0,0,0-.689-.422,2.4,2.4,0,0,0-1.057-.17,2.527,2.527,0,0,0-1,.283,2.589,2.589,0,0,0-.809.661,2.484,2.484,0,0,0-.483.968,2.621,2.621,0,0,0-.026,1.022c.008.057,0,.065-.049.057a7.6,7.6,0,0,1-4.891-2.489c-.057-.065-.088-.065-.135,0a2.48,2.48,0,0,0,.423,2.93c.1.091.194.182.3.265a2.5,2.5,0,0,1-.944-.265c-.057-.036-.086-.015-.091.049a1.514,1.514,0,0,0,.016.28,2.508,2.508,0,0,0,1.546,2,1.454,1.454,0,0,0,.314.1,2.8,2.8,0,0,1-.926.029c-.068-.013-.093.021-.068.085a2.6,2.6,0,0,0,1.945,1.628c.088.016.176.016.265.036-.005.008-.011.008-.016.016a3.081,3.081,0,0,1-1.328.7,4.758,4.758,0,0,1-2.017.258c-.109-.016-.131-.015-.161,0s0,.044.031.072c.137.091.277.171.42.249a6.665,6.665,0,0,0,1.348.539,7.181,7.181,0,0,0,6.972-1.63,7.316,7.316,0,0,0,1.929-5.337c0-.077.091-.119.145-.159a4.692,4.692,0,0,0,.945-.987.287.287,0,0,0,.059-.189v-.01c0-.031,0-.022-.045,0" transform="translate(-103.402 -1.106)" fill="#fff"/>
</svg>
